<svg xmlns="http://www.w3.org/2000/svg" width="21.594" height="24.656"><path d="M20.04 7.71a1.545 1.545 0 0 0-1.541 1.541v6.164a1.541 1.541 0 1 0 3.082 0V9.25a1.545 1.545 0 0 0-1.541-1.54zm-18.492 0A1.545 1.545 0 0 0 .006 9.25v6.164a1.541 1.541 0 1 0 3.082 0V9.25a1.545 1.545 0 0 0-1.54-1.54zm2.311 10.017a2.312 2.312 0 0 0 2.312 2.311h.77v3.082a1.541 1.541 0 1 0 3.082 0v-3.082h1.541v3.082a1.541 1.541 0 0 0 3.082 0v-3.082h.771a2.311 2.311 0 0 0 2.311-2.311V9.25H3.859v8.476zm9.79-15.567l.975-1.874a.192.192 0 1 0-.341-.177l-.99 1.9a6.962 6.962 0 0 0-5 0l-.99-1.9a.193.193 0 1 0-.342.177l.975 1.874A6.938 6.938 0 0 0 3.9 7.71h13.783a6.936 6.936 0 0 0-4.034-5.55zM7.712 6.516a1.118 1.118 0 1 1 1.117-1.118 1.119 1.119 0 0 1-1.117 1.118zm6.164 0a1.118 1.118 0 1 1 1.117-1.118 1.119 1.119 0 0 1-1.117 1.118z" fill="#f4f4f4" fill-rule="evenodd"/></svg>