<svg xmlns="http://www.w3.org/2000/svg" width="20.094" height="24.656"><path d="M16.771 13.096a5.576 5.576 0 0 1 2.663-4.695 5.758 5.758 0 0 0-4.509-2.443c-1.921-.195-3.747 1.13-4.721 1.13s-2.476-1.1-4.069-1.072a6.03 6.03 0 0 0-5.1 3.091C-1.139 12.88.478 18.47 2.597 21.529c1.036 1.5 2.271 3.181 3.893 3.12 1.56-.061 2.151-1.009 4.039-1.009s2.418 1.009 4.07.979c1.68-.031 2.745-1.527 3.773-3.03a13.67 13.67 0 0 0 1.709-3.506 5.446 5.446 0 0 1-3.31-4.987zm-3.1-9.165a5.435 5.435 0 0 0 1.283-3.936 5.515 5.515 0 0 0-3.632 1.867 5.168 5.168 0 0 0-1.309 3.815 4.574 4.574 0 0 0 3.654-1.746z" fill="#f4f4f4" fill-rule="evenodd"/></svg>