<svg xmlns="http://www.w3.org/2000/svg" width="19" height="18"><path d="M9.476 14.46a2 2 0 0 0-.049-.44 5.364 5.364 0 0 0-.1-.38 1.376 1.376 0 0 0-.19-.38l-.227-.33a2.514 2.514 0 0 0-.286-.32c-.13-.12-.229-.21-.3-.27s-.184-.16-.346-.28-.274-.2-.336-.25-.18-.12-.356-.25-.287-.19-.331-.22a3.6 3.6 0 0 0-.54-.03 8.663 8.663 0 0 0-1.147.08 6.716 6.716 0 0 0-1.168.27 4.317 4.317 0 0 0-1.06.5 2.354 2.354 0 0 0-.747.81 2.437 2.437 0 0 0 .092 2.47 2.687 2.687 0 0 0 1.006.91 5.565 5.565 0 0 0 1.3.49 5.821 5.821 0 0 0 1.374.17 5.345 5.345 0 0 0 1.217-.14 4.141 4.141 0 0 0 1.087-.42 2.135 2.135 0 0 0 .806-.8 2.3 2.3 0 0 0 .301-1.19zm-1.3-9.32a5.913 5.913 0 0 0-.178-1.38 6.919 6.919 0 0 0-.509-1.41 3.1 3.1 0 0 0-.909-1.13A2.1 2.1 0 0 0 5.288.78a1.821 1.821 0 0 0-1.558.75 2.893 2.893 0 0 0-.552 1.78 4.91 4.91 0 0 0 .125 1.07 5.586 5.586 0 0 0 .384 1.13 5.407 5.407 0 0 0 .606 1.01 2.8 2.8 0 0 0 .843.73 2.077 2.077 0 0 0 1.05.28 1.739 1.739 0 0 0 1.52-.66 2.886 2.886 0 0 0 .472-1.73zM6.759 0h4.727l-1.46.85h-1.46a3.251 3.251 0 0 1 1.189 1.37 4.132 4.132 0 0 1 .422 1.83 3.824 3.824 0 0 1-.249 1.42 3.167 3.167 0 0 1-.6 1c-.238.25-.476.48-.714.7a4.03 4.03 0 0 0-.606.66 1.2 1.2 0 0 0-.249.73 1 1 0 0 0 .179.55 2.662 2.662 0 0 0 .465.52c.191.16.4.34.632.52s.462.38.693.6a5.422 5.422 0 0 1 .633.71 3.254 3.254 0 0 1 .465.92 3.626 3.626 0 0 1 .178 1.15 3.945 3.945 0 0 1-1.514 3.05A6.708 6.708 0 0 1 4.947 18a8.159 8.159 0 0 1-1.293-.11 6.628 6.628 0 0 1-1.32-.36 4.963 4.963 0 0 1-1.174-.63 2.959 2.959 0 0 1-.832-.96 2.657 2.657 0 0 1-.325-1.31 3.379 3.379 0 0 1 .4-1.47 3.252 3.252 0 0 1 1.039-1.19 5.177 5.177 0 0 1 1.568-.77 12.986 12.986 0 0 1 1.677-.39 12.482 12.482 0 0 1 1.622-.14 2.776 2.776 0 0 1-.692-1.62 1.508 1.508 0 0 1 .022-.25 1.229 1.229 0 0 1 .054-.21c.022-.06.05-.14.086-.23a2.108 2.108 0 0 0 .076-.24 5.6 5.6 0 0 1-.757.06 3.97 3.97 0 0 1-2.764-1.06 3.477 3.477 0 0 1-1.152-2.66A4.032 4.032 0 0 1 2.21 1.75 4.539 4.539 0 0 1 4.741.22 9.331 9.331 0 0 1 6.761 0zM19 3v1h-3v3h-1V4h-3V3h3V0h1v3h3z" fill="#fff" fill-rule="evenodd"/></svg>